<?xml version="1.0" standalone="no"?>
<!DOCTYPE svg PUBLIC "-//W3C//DTD SVG 20010904//EN"
 "http://www.w3.org/TR/2001/REC-SVG-20010904/DTD/svg10.dtd">
<svg version="1.0" xmlns="http://www.w3.org/2000/svg"
 width="500.000000pt" height="500.000000pt" viewBox="0 0 500.000000 500.000000"
 preserveAspectRatio="xMidYMid meet">

<g transform="translate(0.000000,500.000000) scale(0.100000,-0.100000)"
fill="#000000" stroke="none">
<path d="M2290 3393 c-97 -16 -188 -61 -256 -125 -106 -101 -154 -210 -154
-352 0 -133 46 -244 139 -336 96 -95 209 -140 348 -140 42 0 73 -4 73 -10 0
-5 18 -10 40 -10 29 0 40 -4 40 -15 0 -12 -14 -15 -69 -15 -62 0 -70 -2 -76
-21 -5 -14 0 -30 13 -48 l19 -26 329 -3 c181 -1 339 0 351 3 28 7 46 40 39 70
-6 22 -13 24 -66 27 -62 3 -83 20 -33 26 15 2 31 9 35 15 13 21 9 422 -4 435
-8 8 -48 12 -115 12 l-103 0 0 40 c0 167 -109 344 -259 419 -94 48 -206 68
-291 54z m-53 -73 c-38 -41 -67 -92 -86 -150 -9 -30 -19 -38 -64 -54 -62 -21
-141 -70 -163 -100 -16 -20 -16 -20 -10 9 24 108 126 239 227 290 108 56 143
57 96 5z m103 -60 l0 -100 -42 0 c-24 -1 -62 -5 -85 -9 -24 -5 -43 -6 -43 -3
0 14 74 152 88 165 14 13 72 47 80 47 1 0 2 -45 2 -100z m121 42 c32 -36 85
-139 76 -148 -2 -3 -41 -2 -86 2 l-81 7 0 98 0 98 30 -10 c16 -6 44 -27 61
-47z m97 22 c107 -52 210 -175 240 -287 l11 -38 -41 37 c-35 31 -120 77 -180
98 -10 3 -18 12 -18 20 0 23 -68 148 -98 180 l-27 29 30 -7 c17 -4 54 -18 83
-32z m-218 -294 l0 -100 -100 0 -100 0 0 34 c0 36 17 137 25 144 8 8 78 20
128 21 l47 1 0 -100z m208 76 c8 -8 16 -45 19 -95 l6 -81 -102 0 -101 0 0 101
0 102 82 -6 c49 -4 88 -12 96 -21z m-422 -33 c-3 -16 -8 -54 -12 -85 l-6 -58
-94 0 c-105 0 -110 4 -71 60 13 20 51 49 92 72 85 46 98 48 91 11z m521 6 c26
-11 63 -32 81 -46 31 -23 72 -78 72 -95 0 -5 -45 -8 -100 -8 l-100 0 0 39 c0
21 -3 59 -6 85 -4 25 -4 46 -1 46 3 0 27 -9 54 -21z m-533 -231 c4 -29 9 -68
13 -86 l5 -33 -43 17 c-62 25 -111 57 -142 94 -46 54 -39 60 67 60 l93 0 7
-52z m226 -49 l0 -102 -62 7 c-129 15 -122 8 -134 129 l-7 67 102 0 101 0 0
-101z m230 91 c0 -6 -26 -10 -58 -10 -32 0 -63 -5 -70 -12 -7 -7 -12 -43 -12
-90 l0 -78 -30 0 -30 0 0 100 0 100 100 0 c60 0 100 -4 100 -10z m225 0 c-3
-6 -48 -10 -101 -10 -56 0 -94 4 -94 10 0 6 40 10 101 10 64 0 98 -4 94 -10z
m245 -245 l0 -205 -290 0 -290 0 0 205 0 205 290 0 290 0 0 -205z m-1030 108
c19 -11 56 -28 82 -38 40 -15 48 -23 63 -63 23 -62 51 -110 88 -149 l30 -32
-39 10 c-145 40 -285 182 -318 324 l-7 30 33 -31 c18 -17 49 -40 68 -51z m283
-79 l47 -6 0 -94 c0 -52 -3 -94 -7 -94 -5 0 -22 9 -40 19 -36 22 -82 87 -107
149 l-17 44 38 -6 c21 -3 59 -8 86 -12z m121 -181 c-38 -28 -44 -17 -44 81 l0
95 28 3 27 3 3 -85 c2 -71 0 -87 -14 -97z m416 -88 c0 -12 -14 -15 -70 -15
-56 0 -70 3 -70 15 0 12 14 15 70 15 56 0 70 -3 70 -15z m-192 -2 c-15 -2 -42
-2 -60 0 -18 2 -6 4 27 4 33 0 48 -2 33 -4z m310 0 c-15 -2 -42 -2 -60 0 -18
2 -6 4 27 4 33 0 48 -2 33 -4z m150 -55 l-3 -23 -345 0 -345 0 -3 23 -3 22
351 0 351 0 -3 -22z"/>
<path d="M2492 2832 c-9 -7 -12 -51 -10 -188 l3 -179 265 0 265 0 0 185 0 185
-255 2 c-140 2 -261 -1 -268 -5z m508 -187 l0 -165 -250 0 -250 0 0 165 0 165
250 0 250 0 0 -165z"/>
<path d="M1027 2304 c-3 -3 -2 -18 3 -34 4 -15 11 -109 15 -207 7 -165 14
-203 36 -203 5 0 16 15 26 33 14 24 19 64 23 167 l5 135 55 6 55 6 -56 1 c-51
2 -57 4 -63 26 -3 13 -9 32 -12 41 -6 15 0 17 54 13 34 -1 58 0 54 3 -9 8
-188 19 -195 13z"/>
<path d="M2253 2290 c-55 -22 -48 -70 30 -209 60 -108 71 -141 53 -160 -25
-25 -64 1 -91 62 -25 55 -35 40 -11 -17 19 -44 52 -66 101 -66 98 0 97 39 -5
228 -68 126 -79 162 -46 162 29 0 49 -14 62 -44 8 -19 13 -24 14 -13 0 23 -44
67 -67 66 -10 0 -28 -4 -40 -9z"/>
<path d="M1981 2221 c-6 -11 -11 -47 -11 -80 l0 -60 -42 -23 c-38 -20 -43 -28
-46 -62 -4 -44 19 -76 53 -76 19 0 24 -7 29 -45 9 -54 28 -59 53 -12 13 24 18
62 21 162 2 72 -1 148 -5 170 -10 45 -35 58 -52 26z m-11 -198 c0 -47 -12 -66
-36 -61 -27 5 -32 65 -7 84 31 23 43 17 43 -23z"/>
<path d="M2523 2168 c-71 -78 -76 -189 -11 -243 52 -43 93 -29 148 50 39 57
38 64 -5 26 -38 -33 -44 -35 -70 -25 -20 8 -48 61 -42 79 3 7 21 15 40 19 68
13 88 78 32 104 -39 18 -69 14 -92 -10z m85 -10 c27 -27 -2 -78 -44 -78 -23 0
-23 0 -7 45 15 46 29 55 51 33z"/>
<path d="M2977 2178 c-16 -12 -16 -17 3 -68 38 -101 103 -229 119 -235 10 -4
21 2 31 16 19 29 102 280 84 255 -7 -10 -25 -53 -39 -95 -36 -108 -39 -111
-63 -65 -10 21 -29 69 -41 107 -31 92 -55 114 -94 85z"/>
<path d="M3311 2144 c-37 -57 -46 -98 -32 -152 13 -47 61 -92 98 -92 28 0 75
44 107 101 l20 34 -37 -32 c-45 -39 -60 -41 -92 -8 -29 28 -33 63 -7 71 88 27
112 63 68 101 -17 14 -40 23 -61 23 -28 0 -37 -7 -64 -46z m109 6 c14 -27 -3
-58 -36 -66 -35 -9 -37 -3 -18 45 18 45 37 52 54 21z"/>
<path d="M1758 2160 c12 -12 22 -27 22 -34 0 -8 9 -24 20 -37 l19 -24 1 28 c0
50 -27 87 -64 87 -19 0 -19 -1 2 -20z"/>
<path d="M2847 2158 c11 -13 25 -36 30 -52 13 -41 33 -45 33 -8 0 37 -35 82
-62 82 l-21 0 20 -22z"/>
<path d="M3652 2163 c9 -10 23 -35 31 -55 18 -42 37 -50 37 -15 0 35 -37 87
-61 87 -20 0 -21 -1 -7 -17z"/>
<path d="M1689 2163 l-36 -4 3 -47 c14 -193 15 -202 36 -213 15 -8 23 -8 32 1
11 11 14 115 5 217 -2 29 -4 52 -4 51 0 -1 -16 -3 -36 -5z"/>
<path d="M2777 2163 l-38 -4 6 -77 c10 -139 16 -182 25 -182 5 0 15 -3 24 -6
29 -11 41 63 27 165 -7 50 -10 95 -6 101 3 5 5 9 3 8 -2 -1 -20 -3 -41 -5z"/>
<path d="M3587 2163 l-39 -4 7 -112 c4 -62 9 -120 11 -129 5 -18 41 -34 52
-23 12 11 15 169 4 207 -6 21 -6 41 0 51 5 10 8 16 6 15 -2 -1 -20 -3 -41 -5z"/>
<path d="M3786 2154 c-27 -27 -19 -60 24 -97 45 -38 49 -56 20 -82 -16 -15
-22 -16 -35 -5 -28 23 -26 4 3 -22 44 -41 76 -43 106 -7 41 49 28 95 -39 132
-45 26 -50 36 -30 62 14 20 15 20 35 -5 16 -20 19 -21 14 -5 -4 11 -11 26 -17
33 -13 17 -62 15 -81 -4z"/>
<path d="M1340 2114 c0 -9 5 -14 12 -12 18 6 21 28 4 28 -9 0 -16 -7 -16 -16z"/>
<path d="M1494 2115 c-47 -32 -57 -133 -19 -175 25 -28 82 -45 100 -30 19 15
38 113 30 150 -7 32 -47 70 -74 70 -9 0 -26 -7 -37 -15z m90 -56 c11 -34 -1
-98 -20 -106 -36 -14 -57 43 -40 110 9 37 46 34 60 -4z"/>
<path d="M1326 2063 c10 -24 18 -226 9 -269 -3 -19 -10 -34 -15 -34 -6 0 -23
19 -40 42 -33 46 -38 39 -14 -22 24 -60 94 -91 124 -55 19 22 26 204 11 271
-10 43 -18 57 -41 69 -37 19 -44 19 -34 -2z"/>
<path d="M2315 1467 c-3 -7 -5 -54 -3 -103 2 -71 6 -89 18 -89 11 0 16 16 20
68 3 37 2 67 -2 67 -5 0 -8 13 -8 29 0 32 -17 51 -25 28z"/>
<path d="M1490 1375 l0 -96 38 7 c42 8 54 14 26 14 -16 0 -19 8 -22 50 -2 44
0 51 20 60 23 9 23 9 -3 9 -30 1 -47 30 -27 43 9 5 6 8 -9 8 -22 0 -23 -3 -23
-95z"/>
<path d="M2251 1361 c-11 -73 -8 -101 14 -101 16 0 29 97 20 140 -10 48 -21
35 -34 -39z"/>
<path d="M1610 1404 c0 -27 52 -134 65 -134 6 0 17 11 23 25 16 35 15 53 -1
31 -12 -17 -15 -14 -33 35 -12 33 -26 55 -37 57 -11 2 -17 -3 -17 -14z"/>
<path d="M1776 1398 c-44 -62 18 -156 66 -100 28 33 32 45 10 31 -22 -14 -52
-6 -52 14 0 8 12 19 26 26 33 15 28 45 -8 49 -18 2 -31 -4 -42 -20z m54 -2 c0
-15 -18 -31 -26 -23 -7 7 7 37 17 37 5 0 9 -6 9 -14z"/>
<path d="M1958 1388 c13 -26 17 -29 20 -15 2 10 -2 24 -8 32 -22 26 -29 16
-12 -17z"/>
<path d="M2003 1405 c3 -11 8 -29 11 -41 4 -11 17 -26 29 -33 21 -11 22 -18
19 -82 -4 -72 6 -89 29 -47 17 31 25 203 10 212 -11 7 -15 1 -26 -47 -7 -35
-25 -31 -47 12 -20 40 -32 53 -25 26z"/>
<path d="M2446 1398 c-21 -30 -20 -81 2 -101 27 -25 48 -21 73 14 20 29 20 30
2 18 -23 -14 -53 -6 -53 14 0 8 12 19 26 26 33 15 28 45 -8 49 -18 2 -31 -4
-42 -20z m54 -2 c0 -16 -18 -31 -27 -22 -8 8 5 36 17 36 5 0 10 -6 10 -14z"/>
<path d="M2583 1413 c-19 -4 -21 -9 -16 -66 7 -71 7 -72 29 -63 14 5 16 16 10
66 -5 42 -4 60 4 60 7 0 14 -9 17 -20 3 -11 9 -20 14 -20 12 0 11 7 -1 31 -11
19 -16 20 -57 12z"/>
<path d="M2685 1384 c-32 -68 21 -130 71 -83 29 27 32 44 5 27 -15 -9 -23 -9
-35 1 -20 17 -21 31 -2 31 21 0 46 28 40 45 -4 8 -19 15 -34 15 -22 0 -31 -7
-45 -36z m65 12 c0 -16 -18 -31 -27 -22 -8 8 5 36 17 36 5 0 10 -6 10 -14z"/>
<path d="M2873 1405 c3 -11 8 -29 11 -41 4 -11 17 -26 29 -33 21 -11 22 -18
19 -82 -4 -72 6 -89 29 -47 17 31 25 203 10 212 -11 7 -15 1 -26 -47 -7 -35
-25 -31 -47 12 -20 40 -32 53 -25 26z"/>
<path d="M1902 1348 c2 -48 7 -63 18 -63 19 0 24 26 15 81 -4 29 -11 44 -21
44 -12 0 -14 -13 -12 -62z"/>
<path d="M2146 1383 c25 -101 46 -124 67 -74 7 17 16 28 20 24 4 -3 7 0 7 9 0
30 -15 28 -26 -4 -10 -29 -13 -31 -19 -13 -26 68 -35 85 -45 85 -6 0 -8 -10
-4 -27z"/>
<path d="M2374 1397 c3 -10 6 -39 6 -63 0 -28 4 -43 10 -39 16 10 12 79 -6
101 -14 17 -15 17 -10 1z"/>
<path d="M3115 1397 c-4 -8 -5 -32 -3 -53 2 -33 8 -42 35 -54 17 -8 34 -24 37
-35 5 -18 7 -18 21 -4 12 12 14 28 8 84 -10 87 -33 102 -33 21 0 -30 -5 -58
-11 -61 -15 -10 -19 -3 -28 54 -9 56 -17 72 -26 48z"/>
<path d="M3310 1385 c-16 -20 -5 -62 20 -75 13 -7 20 -21 20 -40 0 -33 -18
-49 -32 -29 -8 12 -9 11 -5 -1 2 -8 16 -16 30 -18 32 -4 47 25 47 91 0 70 -47
112 -80 72z m40 -19 c0 -24 -12 -46 -21 -40 -15 9 -10 54 6 54 8 0 15 -6 15
-14z"/>
<path d="M3020 1371 c-5 -11 -10 -28 -10 -39 0 -20 29 -52 48 -52 15 0 32 33
32 62 0 46 -50 66 -70 29z m57 -17 c3 -8 1 -25 -4 -37 l-10 -22 -11 22 c-12
22 -7 53 9 53 5 0 12 -7 16 -16z"/>
<path d="M3426 1375 c-13 -35 -6 -74 15 -85 36 -20 50 -5 47 47 -3 43 -6 48
-29 51 -17 2 -29 -3 -33 -13z m54 -35 c0 -20 -5 -30 -15 -30 -10 0 -15 10 -15
30 0 20 5 30 15 30 10 0 15 -10 15 -30z"/>
</g>
</svg>
